# Blender 5.2.2 LTS
# www.blender.org
mtllib maze-mark.mtl
o maze-mark
v -50.000000 0.000000 -44.097221
v -44.097221 0.000000 -44.097221
v -44.097221 0.000000 -50.000000
v -50.000000 0.000000 -50.000000
v -35.416668 0.000000 -44.097221
v -35.416668 0.000000 -50.000000
v -29.861111 0.000000 -44.097221
v -29.861111 0.000000 -50.000000
v -20.833334 0.000000 -44.097221
v -20.833334 0.000000 -50.000000
v -14.930555 0.000000 -44.097221
v -14.930555 0.000000 -50.000000
v -11.805555 0.000000 -44.097221
v -11.805555 0.000000 -50.000000
v -2.777778 0.000000 -44.097221
v -2.777778 0.000000 -50.000000
v 2.777778 0.000000 -44.097221
v 2.777778 0.000000 -50.000000
v 11.805555 0.000000 -44.097221
v 11.805555 0.000000 -50.000000
v 14.930555 0.000000 -44.097221
v 14.930555 0.000000 -50.000000
v 20.833334 0.000000 -44.097221
v 20.833334 0.000000 -50.000000
v 29.861111 0.000000 -44.097221
v 29.861111 0.000000 -50.000000
v 35.416668 0.000000 -44.097221
v 35.416668 0.000000 -50.000000
v 44.097221 0.000000 -44.097221
v 44.097221 0.000000 -50.000000
v 50.000000 0.000000 -44.097221
v 50.000000 0.000000 -50.000000
v -50.000000 0.000000 -35.416668
v -44.097221 0.000000 -35.416668
v -2.777778 0.000000 -35.416668
v 2.777778 0.000000 -35.416668
v 44.097221 0.000000 -35.416668
v 50.000000 0.000000 -35.416668
v -50.000000 0.000000 -29.861111
v -44.097221 0.000000 -29.861111
v -35.416668 0.000000 -29.861111
v -29.861111 0.000000 -29.861111
v -29.861111 0.000000 -35.416668
v -35.416668 0.000000 -35.416668
v -20.833334 0.000000 -29.861111
v -20.833334 0.000000 -35.416668
v -14.930555 0.000000 -29.861111
v -14.930555 0.000000 -35.416668
v -11.805555 0.000000 -29.861111
v -11.805555 0.000000 -35.416668
v -2.777778 0.000000 -29.861111
v 2.777778 0.000000 -29.861111
v 11.805555 0.000000 -29.861111
v 14.930555 0.000000 -29.861111
v 14.930555 0.000000 -35.416668
v 11.805555 0.000000 -35.416668
v 20.833334 0.000000 -29.861111
v 20.833334 0.000000 -35.416668
v 29.861111 0.000000 -29.861111
v 29.861111 0.000000 -35.416668
v 35.416668 0.000000 -29.861111
v 35.416668 0.000000 -35.416668
v 44.097221 0.000000 -29.861111
v 50.000000 0.000000 -29.861111
v -50.000000 0.000000 -20.833334
v -44.097221 0.000000 -20.833334
v -35.416668 0.000000 -20.833334
v -29.861111 0.000000 -20.833334
v -2.777778 0.000000 -20.833334
v 2.777778 0.000000 -20.833334
v 29.861111 0.000000 -20.833334
v 35.416668 0.000000 -20.833334
v 44.097221 0.000000 -20.833334
v 50.000000 0.000000 -20.833334
v -50.000000 0.000000 -14.930555
v -44.097221 0.000000 -14.930555
v -35.416668 0.000000 -14.930555
v -29.861111 0.000000 -14.930555
v -20.833334 0.000000 -14.930555
v -14.930555 0.000000 -14.930555
v -14.930555 0.000000 -20.833334
v -20.833334 0.000000 -20.833334
v -11.805555 0.000000 -14.930555
v -11.805555 0.000000 -20.833334
v -2.777778 0.000000 -14.930555
v 2.777778 0.000000 -14.930555
v 11.805555 0.000000 -14.930555
v 11.805555 0.000000 -20.833334
v 14.930555 0.000000 -14.930555
v 14.930555 0.000000 -20.833334
v 20.833334 0.000000 -14.930555
v 20.833334 0.000000 -20.833334
v 29.861111 0.000000 -14.930555
v 35.416668 0.000000 -14.930555
v 44.097221 0.000000 -14.930555
v 50.000000 0.000000 -14.930555
v -50.000000 0.000000 -11.805555
v -44.097221 0.000000 -11.805555
v -35.416668 0.000000 -11.805555
v -29.861111 0.000000 -11.805555
v -20.833334 0.000000 -11.805555
v -14.930555 0.000000 -11.805555
v 14.930555 0.000000 -11.805555
v 20.833334 0.000000 -11.805555
v 29.861111 0.000000 -11.805555
v 35.416668 0.000000 -11.805555
v 44.097221 0.000000 -11.805555
v 50.000000 0.000000 -11.805555
v -50.000000 0.000000 -2.777778
v -44.097221 0.000000 -2.777778
v -35.416668 0.000000 -2.777778
v -29.861111 0.000000 -2.777778
v -20.833334 0.000000 -2.777778
v -14.930555 0.000000 -2.777778
v 14.930555 0.000000 -2.777778
v 20.833334 0.000000 -2.777778
v 44.097221 0.000000 -2.777778
v 50.000000 0.000000 -2.777778
v -50.000000 0.000000 2.777778
v -44.097221 0.000000 2.777778
v -35.416668 0.000000 2.777778
v -29.861111 0.000000 2.777778
v -20.833334 0.000000 2.777778
v -14.930555 0.000000 2.777778
v 14.930555 0.000000 2.777778
v 20.833334 0.000000 2.777778
v 29.861111 0.000000 2.777778
v 35.416668 0.000000 2.777778
v 35.416668 0.000000 -2.777778
v 29.861111 0.000000 -2.777778
v 44.097221 0.000000 2.777778
v 50.000000 0.000000 2.777778
v -50.000000 0.000000 11.805555
v -44.097221 0.000000 11.805555
v -20.833334 0.000000 11.805555
v -14.930555 0.000000 11.805555
v 14.930555 0.000000 11.805555
v 20.833334 0.000000 11.805555
v 29.861111 0.000000 11.805555
v 35.416668 0.000000 11.805555
v 44.097221 0.000000 11.805555
v 50.000000 0.000000 11.805555
v -50.000000 0.000000 14.930555
v -44.097221 0.000000 14.930555
v -35.416668 0.000000 14.930555
v -35.416668 0.000000 11.805555
v -29.861111 0.000000 14.930555
v -29.861111 0.000000 11.805555
v -20.833334 0.000000 14.930555
v -14.930555 0.000000 14.930555
v 14.930555 0.000000 14.930555
v 20.833334 0.000000 14.930555
v 29.861111 0.000000 14.930555
v 35.416668 0.000000 14.930555
v 44.097221 0.000000 14.930555
v 50.000000 0.000000 14.930555
v -50.000000 0.000000 20.833334
v -44.097221 0.000000 20.833334
v -35.416668 0.000000 20.833334
v -29.861111 0.000000 20.833334
v -20.833334 0.000000 20.833334
v -14.930555 0.000000 20.833334
v -11.805555 0.000000 20.833334
v -11.805555 0.000000 14.930555
v -2.777778 0.000000 20.833334
v -2.777778 0.000000 14.930555
v 2.777778 0.000000 20.833334
v 2.777778 0.000000 14.930555
v 11.805555 0.000000 20.833334
v 11.805555 0.000000 14.930555
v 14.930555 0.000000 20.833334
v 20.833334 0.000000 20.833334
v 29.861111 0.000000 20.833334
v 35.416668 0.000000 20.833334
v 44.097221 0.000000 20.833334
v 50.000000 0.000000 20.833334
v -50.000000 0.000000 29.861111
v -44.097221 0.000000 29.861111
v -35.416668 0.000000 29.861111
v -29.861111 0.000000 29.861111
v 29.861111 0.000000 29.861111
v 35.416668 0.000000 29.861111
v 44.097221 0.000000 29.861111
v 50.000000 0.000000 29.861111
v -50.000000 0.000000 35.416668
v -44.097221 0.000000 35.416668
v -35.416668 0.000000 35.416668
v -29.861111 0.000000 35.416668
v -20.833334 0.000000 35.416668
v -20.833334 0.000000 29.861111
v -14.930555 0.000000 35.416668
v -14.930555 0.000000 29.861111
v -11.805555 0.000000 35.416668
v -11.805555 0.000000 29.861111
v -2.777778 0.000000 35.416668
v 2.777778 0.000000 35.416668
v 2.777778 0.000000 29.861111
v -2.777778 0.000000 29.861111
v 11.805555 0.000000 35.416668
v 14.930555 0.000000 35.416668
v 14.930555 0.000000 29.861111
v 11.805555 0.000000 29.861111
v 20.833334 0.000000 35.416668
v 20.833334 0.000000 29.861111
v 29.861111 0.000000 35.416668
v 35.416668 0.000000 35.416668
v 44.097221 0.000000 35.416668
v 50.000000 0.000000 35.416668
v -50.000000 0.000000 44.097221
v -44.097221 0.000000 44.097221
v -2.777778 0.000000 44.097221
v 2.777778 0.000000 44.097221
v 44.097221 0.000000 44.097221
v 50.000000 0.000000 44.097221
v -50.000000 0.000000 50.000000
v -44.097221 0.000000 50.000000
v -35.416668 0.000000 50.000000
v -35.416668 0.000000 44.097221
v -29.861111 0.000000 50.000000
v -29.861111 0.000000 44.097221
v -20.833334 0.000000 50.000000
v -20.833334 0.000000 44.097221
v -14.930555 0.000000 50.000000
v -14.930555 0.000000 44.097221
v -11.805555 0.000000 50.000000
v -11.805555 0.000000 44.097221
v -2.777778 0.000000 50.000000
v 2.777778 0.000000 50.000000
v 11.805555 0.000000 50.000000
v 11.805555 0.000000 44.097221
v 14.930555 0.000000 50.000000
v 14.930555 0.000000 44.097221
v 20.833334 0.000000 50.000000
v 20.833334 0.000000 44.097221
v 29.861111 0.000000 50.000000
v 29.861111 0.000000 44.097221
v 35.416668 0.000000 50.000000
v 35.416668 0.000000 44.097221
v 44.097221 0.000000 50.000000
v 50.000000 0.000000 50.000000
v -50.000000 10.000000 -44.097221
v -44.097221 10.000000 -44.097221
v -44.097221 10.000000 -50.000000
v -50.000000 10.000000 -50.000000
v -35.416668 10.000000 -44.097221
v -35.416668 10.000000 -50.000000
v -29.861111 10.000000 -44.097221
v -29.861111 10.000000 -50.000000
v -20.833334 10.000000 -44.097221
v -20.833334 10.000000 -50.000000
v -14.930555 10.000000 -44.097221
v -14.930555 10.000000 -50.000000
v -11.805555 10.000000 -44.097221
v -11.805555 10.000000 -50.000000
v -2.777778 10.000000 -44.097221
v -2.777778 10.000000 -50.000000
v 2.777778 10.000000 -44.097221
v 2.777778 10.000000 -50.000000
v 11.805555 10.000000 -44.097221
v 11.805555 10.000000 -50.000000
v 14.930555 10.000000 -44.097221
v 14.930555 10.000000 -50.000000
v 20.833334 10.000000 -44.097221
v 20.833334 10.000000 -50.000000
v 29.861111 10.000000 -44.097221
v 29.861111 10.000000 -50.000000
v 35.416668 10.000000 -44.097221
v 35.416668 10.000000 -50.000000
v 44.097221 10.000000 -44.097221
v 44.097221 10.000000 -50.000000
v 50.000000 10.000000 -44.097221
v 50.000000 10.000000 -50.000000
v -50.000000 10.000000 -35.416668
v -44.097221 10.000000 -35.416668
v -2.777778 10.000000 -35.416668
v 2.777778 10.000000 -35.416668
v 44.097221 10.000000 -35.416668
v 50.000000 10.000000 -35.416668
v -50.000000 10.000000 -29.861111
v -44.097221 10.000000 -29.861111
v -35.416668 10.000000 -29.861111
v -29.861111 10.000000 -29.861111
v -29.861111 10.000000 -35.416668
v -35.416668 10.000000 -35.416668
v -20.833334 10.000000 -29.861111
v -20.833334 10.000000 -35.416668
v -14.930555 10.000000 -29.861111
v -14.930555 10.000000 -35.416668
v -11.805555 10.000000 -29.861111
v -11.805555 10.000000 -35.416668
v -2.777778 10.000000 -29.861111
v 2.777778 10.000000 -29.861111
v 11.805555 10.000000 -29.861111
v 14.930555 10.000000 -29.861111
v 14.930555 10.000000 -35.416668
v 11.805555 10.000000 -35.416668
v 20.833334 10.000000 -29.861111
v 20.833334 10.000000 -35.416668
v 29.861111 10.000000 -29.861111
v 29.861111 10.000000 -35.416668
v 35.416668 10.000000 -29.861111
v 35.416668 10.000000 -35.416668
v 44.097221 10.000000 -29.861111
v 50.000000 10.000000 -29.861111
v -50.000000 10.000000 -20.833334
v -44.097221 10.000000 -20.833334
v -35.416668 10.000000 -20.833334
v -29.861111 10.000000 -20.833334
v -2.777778 10.000000 -20.833334
v 2.777778 10.000000 -20.833334
v 29.861111 10.000000 -20.833334
v 35.416668 10.000000 -20.833334
v 44.097221 10.000000 -20.833334
v 50.000000 10.000000 -20.833334
v -50.000000 10.000000 -14.930555
v -44.097221 10.000000 -14.930555
v -35.416668 10.000000 -14.930555
v -29.861111 10.000000 -14.930555
v -20.833334 10.000000 -14.930555
v -14.930555 10.000000 -14.930555
v -14.930555 10.000000 -20.833334
v -20.833334 10.000000 -20.833334
v -11.805555 10.000000 -14.930555
v -11.805555 10.000000 -20.833334
v -2.777778 10.000000 -14.930555
v 2.777778 10.000000 -14.930555
v 11.805555 10.000000 -14.930555
v 11.805555 10.000000 -20.833334
v 14.930555 10.000000 -14.930555
v 14.930555 10.000000 -20.833334
v 20.833334 10.000000 -14.930555
v 20.833334 10.000000 -20.833334
v 29.861111 10.000000 -14.930555
v 35.416668 10.000000 -14.930555
v 44.097221 10.000000 -14.930555
v 50.000000 10.000000 -14.930555
v -50.000000 10.000000 -11.805555
v -44.097221 10.000000 -11.805555
v -35.416668 10.000000 -11.805555
v -29.861111 10.000000 -11.805555
v -20.833334 10.000000 -11.805555
v -14.930555 10.000000 -11.805555
v 14.930555 10.000000 -11.805555
v 20.833334 10.000000 -11.805555
v 29.861111 10.000000 -11.805555
v 35.416668 10.000000 -11.805555
v 44.097221 10.000000 -11.805555
v 50.000000 10.000000 -11.805555
v -50.000000 10.000000 -2.777778
v -44.097221 10.000000 -2.777778
v -35.416668 10.000000 -2.777778
v -29.861111 10.000000 -2.777778
v -20.833334 10.000000 -2.777778
v -14.930555 10.000000 -2.777778
v 14.930555 10.000000 -2.777778
v 20.833334 10.000000 -2.777778
v 44.097221 10.000000 -2.777778
v 50.000000 10.000000 -2.777778
v -50.000000 10.000000 2.777778
v -44.097221 10.000000 2.777778
v -35.416668 10.000000 2.777778
v -29.861111 10.000000 2.777778
v -20.833334 10.000000 2.777778
v -14.930555 10.000000 2.777778
v 14.930555 10.000000 2.777778
v 20.833334 10.000000 2.777778
v 29.861111 10.000000 2.777778
v 35.416668 10.000000 2.777778
v 35.416668 10.000000 -2.777778
v 29.861111 10.000000 -2.777778
v 44.097221 10.000000 2.777778
v 50.000000 10.000000 2.777778
v -50.000000 10.000000 11.805555
v -44.097221 10.000000 11.805555
v -20.833334 10.000000 11.805555
v -14.930555 10.000000 11.805555
v 14.930555 10.000000 11.805555
v 20.833334 10.000000 11.805555
v 29.861111 10.000000 11.805555
v 35.416668 10.000000 11.805555
v 44.097221 10.000000 11.805555
v 50.000000 10.000000 11.805555
v -50.000000 10.000000 14.930555
v -44.097221 10.000000 14.930555
v -35.416668 10.000000 14.930555
v -35.416668 10.000000 11.805555
v -29.861111 10.000000 14.930555
v -29.861111 10.000000 11.805555
v -20.833334 10.000000 14.930555
v -14.930555 10.000000 14.930555
v 14.930555 10.000000 14.930555
v 20.833334 10.000000 14.930555
v 29.861111 10.000000 14.930555
v 35.416668 10.000000 14.930555
v 44.097221 10.000000 14.930555
v 50.000000 10.000000 14.930555
v -50.000000 10.000000 20.833334
v -44.097221 10.000000 20.833334
v -35.416668 10.000000 20.833334
v -29.861111 10.000000 20.833334
v -20.833334 10.000000 20.833334
v -14.930555 10.000000 20.833334
v -11.805555 10.000000 20.833334
v -11.805555 10.000000 14.930555
v -2.777778 10.000000 20.833334
v -2.777778 10.000000 14.930555
v 2.777778 10.000000 20.833334
v 2.777778 10.000000 14.930555
v 11.805555 10.000000 20.833334
v 11.805555 10.000000 14.930555
v 14.930555 10.000000 20.833334
v 20.833334 10.000000 20.833334
v 29.861111 10.000000 20.833334
v 35.416668 10.000000 20.833334
v 44.097221 10.000000 20.833334
v 50.000000 10.000000 20.833334
v -50.000000 10.000000 29.861111
v -44.097221 10.000000 29.861111
v -35.416668 10.000000 29.861111
v -29.861111 10.000000 29.861111
v 29.861111 10.000000 29.861111
v 35.416668 10.000000 29.861111
v 44.097221 10.000000 29.861111
v 50.000000 10.000000 29.861111
v -50.000000 10.000000 35.416668
v -44.097221 10.000000 35.416668
v -35.416668 10.000000 35.416668
v -29.861111 10.000000 35.416668
v -20.833334 10.000000 35.416668
v -20.833334 10.000000 29.861111
v -14.930555 10.000000 35.416668
v -14.930555 10.000000 29.861111
v -11.805555 10.000000 35.416668
v -11.805555 10.000000 29.861111
v -2.777778 10.000000 35.416668
v 2.777778 10.000000 35.416668
v 2.777778 10.000000 29.861111
v -2.777778 10.000000 29.861111
v 11.805555 10.000000 35.416668
v 14.930555 10.000000 35.416668
v 14.930555 10.000000 29.861111
v 11.805555 10.000000 29.861111
v 20.833334 10.000000 35.416668
v 20.833334 10.000000 29.861111
v 29.861111 10.000000 35.416668
v 35.416668 10.000000 35.416668
v 44.097221 10.000000 35.416668
v 50.000000 10.000000 35.416668
v -50.000000 10.000000 44.097221
v -44.097221 10.000000 44.097221
v -2.777778 10.000000 44.097221
v 2.777778 10.000000 44.097221
v 44.097221 10.000000 44.097221
v 50.000000 10.000000 44.097221
v -50.000000 10.000000 50.000000
v -44.097221 10.000000 50.000000
v -35.416668 10.000000 50.000000
v -35.416668 10.000000 44.097221
v -29.861111 10.000000 50.000000
v -29.861111 10.000000 44.097221
v -20.833334 10.000000 50.000000
v -20.833334 10.000000 44.097221
v -14.930555 10.000000 50.000000
v -14.930555 10.000000 44.097221
v -11.805555 10.000000 50.000000
v -11.805555 10.000000 44.097221
v -2.777778 10.000000 50.000000
v 2.777778 10.000000 50.000000
v 11.805555 10.000000 50.000000
v 11.805555 10.000000 44.097221
v 14.930555 10.000000 50.000000
v 14.930555 10.000000 44.097221
v 20.833334 10.000000 50.000000
v 20.833334 10.000000 44.097221
v 29.861111 10.000000 50.000000
v 29.861111 10.000000 44.097221
v 35.416668 10.000000 50.000000
v 35.416668 10.000000 44.097221
v 44.097221 10.000000 50.000000
v 50.000000 10.000000 50.000000
vn -0.0000 -1.0000 -0.0000
vn -0.0000 1.0000 -0.0000
vn -1.0000 -0.0000 -0.0000
vn 1.0000 -0.0000 -0.0000
vn -0.0000 -0.0000 -1.0000
vn -0.0000 -0.0000 1.0000
s 0
usemtl maze-white
f 1//1 4//1 3//1 2//1
f 2//1 3//1 6//1 5//1
f 5//1 6//1 8//1 7//1
f 7//1 8//1 10//1 9//1
f 9//1 10//1 12//1 11//1
f 11//1 12//1 14//1 13//1
f 13//1 14//1 16//1 15//1
f 15//1 16//1 18//1 17//1
f 17//1 18//1 20//1 19//1
f 19//1 20//1 22//1 21//1
f 21//1 22//1 24//1 23//1
f 23//1 24//1 26//1 25//1
f 25//1 26//1 28//1 27//1
f 27//1 28//1 30//1 29//1
f 29//1 30//1 32//1 31//1
f 33//1 1//1 2//1 34//1
f 35//1 15//1 17//1 36//1
f 37//1 29//1 31//1 38//1
f 39//1 33//1 34//1 40//1
f 41//1 44//1 43//1 42//1
f 42//1 43//1 46//1 45//1
f 45//1 46//1 48//1 47//1
f 47//1 48//1 50//1 49//1
f 51//1 35//1 36//1 52//1
f 53//1 56//1 55//1 54//1
f 54//1 55//1 58//1 57//1
f 57//1 58//1 60//1 59//1
f 59//1 60//1 62//1 61//1
f 63//1 37//1 38//1 64//1
f 65//1 39//1 40//1 66//1
f 67//1 41//1 42//1 68//1
f 69//1 51//1 52//1 70//1
f 71//1 59//1 61//1 72//1
f 73//1 63//1 64//1 74//1
f 75//1 65//1 66//1 76//1
f 77//1 67//1 68//1 78//1
f 79//1 82//1 81//1 80//1
f 80//1 81//1 84//1 83//1
f 83//1 84//1 69//1 85//1
f 85//1 69//1 70//1 86//1
f 86//1 70//1 88//1 87//1
f 87//1 88//1 90//1 89//1
f 89//1 90//1 92//1 91//1
f 93//1 71//1 72//1 94//1
f 95//1 73//1 74//1 96//1
f 97//1 75//1 76//1 98//1
f 99//1 77//1 78//1 100//1
f 101//1 79//1 80//1 102//1
f 103//1 89//1 91//1 104//1
f 105//1 93//1 94//1 106//1
f 107//1 95//1 96//1 108//1
f 109//1 97//1 98//1 110//1
f 111//1 99//1 100//1 112//1
f 113//1 101//1 102//1 114//1
f 115//1 103//1 104//1 116//1
f 117//1 107//1 108//1 118//1
f 119//1 109//1 110//1 120//1
f 121//1 111//1 112//1 122//1
f 122//1 112//1 113//1 123//1
f 123//1 113//1 114//1 124//1
f 125//1 115//1 116//1 126//1
f 127//1 130//1 129//1 128//1
f 128//1 129//1 117//1 131//1
f 131//1 117//1 118//1 132//1
f 133//1 119//1 120//1 134//1
f 135//1 123//1 124//1 136//1
f 137//1 125//1 126//1 138//1
f 139//1 127//1 128//1 140//1
f 141//1 131//1 132//1 142//1
f 143//1 133//1 134//1 144//1
f 144//1 134//1 146//1 145//1
f 145//1 146//1 148//1 147//1
f 149//1 135//1 136//1 150//1
f 151//1 137//1 138//1 152//1
f 153//1 139//1 140//1 154//1
f 155//1 141//1 142//1 156//1
f 157//1 143//1 144//1 158//1
f 159//1 145//1 147//1 160//1
f 161//1 149//1 150//1 162//1
f 162//1 150//1 164//1 163//1
f 163//1 164//1 166//1 165//1
f 165//1 166//1 168//1 167//1
f 167//1 168//1 170//1 169//1
f 169//1 170//1 151//1 171//1
f 171//1 151//1 152//1 172//1
f 173//1 153//1 154//1 174//1
f 175//1 155//1 156//1 176//1
f 177//1 157//1 158//1 178//1
f 179//1 159//1 160//1 180//1
f 181//1 173//1 174//1 182//1
f 183//1 175//1 176//1 184//1
f 185//1 177//1 178//1 186//1
f 187//1 179//1 180//1 188//1
f 188//1 180//1 190//1 189//1
f 189//1 190//1 192//1 191//1
f 191//1 192//1 194//1 193//1
f 195//1 198//1 197//1 196//1
f 199//1 202//1 201//1 200//1
f 200//1 201//1 204//1 203//1
f 203//1 204//1 181//1 205//1
f 205//1 181//1 182//1 206//1
f 207//1 183//1 184//1 208//1
f 209//1 185//1 186//1 210//1
f 211//1 195//1 196//1 212//1
f 213//1 207//1 208//1 214//1
f 215//1 209//1 210//1 216//1
f 216//1 210//1 218//1 217//1
f 217//1 218//1 220//1 219//1
f 219//1 220//1 222//1 221//1
f 221//1 222//1 224//1 223//1
f 223//1 224//1 226//1 225//1
f 225//1 226//1 211//1 227//1
f 227//1 211//1 212//1 228//1
f 228//1 212//1 230//1 229//1
f 229//1 230//1 232//1 231//1
f 231//1 232//1 234//1 233//1
f 233//1 234//1 236//1 235//1
f 235//1 236//1 238//1 237//1
f 237//1 238//1 213//1 239//1
f 239//1 213//1 214//1 240//1
f 241//2 242//2 243//2 244//2
f 242//2 245//2 246//2 243//2
f 245//2 247//2 248//2 246//2
f 247//2 249//2 250//2 248//2
f 249//2 251//2 252//2 250//2
f 251//2 253//2 254//2 252//2
f 253//2 255//2 256//2 254//2
f 255//2 257//2 258//2 256//2
f 257//2 259//2 260//2 258//2
f 259//2 261//2 262//2 260//2
f 261//2 263//2 264//2 262//2
f 263//2 265//2 266//2 264//2
f 265//2 267//2 268//2 266//2
f 267//2 269//2 270//2 268//2
f 269//2 271//2 272//2 270//2
f 273//2 274//2 242//2 241//2
f 275//2 276//2 257//2 255//2
f 277//2 278//2 271//2 269//2
f 279//2 280//2 274//2 273//2
f 281//2 282//2 283//2 284//2
f 282//2 285//2 286//2 283//2
f 285//2 287//2 288//2 286//2
f 287//2 289//2 290//2 288//2
f 291//2 292//2 276//2 275//2
f 293//2 294//2 295//2 296//2
f 294//2 297//2 298//2 295//2
f 297//2 299//2 300//2 298//2
f 299//2 301//2 302//2 300//2
f 303//2 304//2 278//2 277//2
f 305//2 306//2 280//2 279//2
f 307//2 308//2 282//2 281//2
f 309//2 310//2 292//2 291//2
f 311//2 312//2 301//2 299//2
f 313//2 314//2 304//2 303//2
f 315//2 316//2 306//2 305//2
f 317//2 318//2 308//2 307//2
f 319//2 320//2 321//2 322//2
f 320//2 323//2 324//2 321//2
f 323//2 325//2 309//2 324//2
f 325//2 326//2 310//2 309//2
f 326//2 327//2 328//2 310//2
f 327//2 329//2 330//2 328//2
f 329//2 331//2 332//2 330//2
f 333//2 334//2 312//2 311//2
f 335//2 336//2 314//2 313//2
f 337//2 338//2 316//2 315//2
f 339//2 340//2 318//2 317//2
f 341//2 342//2 320//2 319//2
f 343//2 344//2 331//2 329//2
f 345//2 346//2 334//2 333//2
f 347//2 348//2 336//2 335//2
f 349//2 350//2 338//2 337//2
f 351//2 352//2 340//2 339//2
f 353//2 354//2 342//2 341//2
f 355//2 356//2 344//2 343//2
f 357//2 358//2 348//2 347//2
f 359//2 360//2 350//2 349//2
f 361//2 362//2 352//2 351//2
f 362//2 363//2 353//2 352//2
f 363//2 364//2 354//2 353//2
f 365//2 366//2 356//2 355//2
f 367//2 368//2 369//2 370//2
f 368//2 371//2 357//2 369//2
f 371//2 372//2 358//2 357//2
f 373//2 374//2 360//2 359//2
f 375//2 376//2 364//2 363//2
f 377//2 378//2 366//2 365//2
f 379//2 380//2 368//2 367//2
f 381//2 382//2 372//2 371//2
f 383//2 384//2 374//2 373//2
f 384//2 385//2 386//2 374//2
f 385//2 387//2 388//2 386//2
f 389//2 390//2 376//2 375//2
f 391//2 392//2 378//2 377//2
f 393//2 394//2 380//2 379//2
f 395//2 396//2 382//2 381//2
f 397//2 398//2 384//2 383//2
f 399//2 400//2 387//2 385//2
f 401//2 402//2 390//2 389//2
f 402//2 403//2 404//2 390//2
f 403//2 405//2 406//2 404//2
f 405//2 407//2 408//2 406//2
f 407//2 409//2 410//2 408//2
f 409//2 411//2 391//2 410//2
f 411//2 412//2 392//2 391//2
f 413//2 414//2 394//2 393//2
f 415//2 416//2 396//2 395//2
f 417//2 418//2 398//2 397//2
f 419//2 420//2 400//2 399//2
f 421//2 422//2 414//2 413//2
f 423//2 424//2 416//2 415//2
f 425//2 426//2 418//2 417//2
f 427//2 428//2 420//2 419//2
f 428//2 429//2 430//2 420//2
f 429//2 431//2 432//2 430//2
f 431//2 433//2 434//2 432//2
f 435//2 436//2 437//2 438//2
f 439//2 440//2 441//2 442//2
f 440//2 443//2 444//2 441//2
f 443//2 445//2 421//2 444//2
f 445//2 446//2 422//2 421//2
f 447//2 448//2 424//2 423//2
f 449//2 450//2 426//2 425//2
f 451//2 452//2 436//2 435//2
f 453//2 454//2 448//2 447//2
f 455//2 456//2 450//2 449//2
f 456//2 457//2 458//2 450//2
f 457//2 459//2 460//2 458//2
f 459//2 461//2 462//2 460//2
f 461//2 463//2 464//2 462//2
f 463//2 465//2 466//2 464//2
f 465//2 467//2 451//2 466//2
f 467//2 468//2 452//2 451//2
f 468//2 469//2 470//2 452//2
f 469//2 471//2 472//2 470//2
f 471//2 473//2 474//2 472//2
f 473//2 475//2 476//2 474//2
f 475//2 477//2 478//2 476//2
f 477//2 479//2 453//2 478//2
f 479//2 480//2 454//2 453//2
f 159//3 179//3 419//3 399//3
f 112//4 100//4 340//4 352//4
f 40//4 34//4 274//4 280//4
f 101//3 113//3 353//3 341//3
f 44//3 41//3 281//3 284//3
f 180//4 160//4 400//4 420//4
f 173//3 181//3 421//3 413//3
f 114//4 102//4 342//4 354//4
f 103//3 115//3 355//3 343//3
f 43//5 44//5 284//5 283//5
f 182//4 174//4 414//4 422//4
f 42//6 45//6 285//6 282//6
f 175//3 183//3 423//3 415//3
f 116//4 104//4 344//4 356//4
f 107//3 117//3 357//3 347//3
f 46//5 43//5 283//5 286//5
f 184//4 176//4 416//4 424//4
f 45//6 47//6 287//6 285//6
f 177//3 185//3 425//3 417//3
f 118//4 108//4 348//4 358//4
f 109//3 119//3 359//3 349//3
f 48//5 46//5 286//5 288//5
f 186//4 178//4 418//4 426//4
f 47//6 49//6 289//6 287//6
f 179//3 187//3 427//3 419//3
f 120//4 110//4 350//4 360//4
f 49//4 50//4 290//4 289//4
f 187//6 188//6 428//6 427//6
f 111//3 121//3 361//3 351//3
f 50//5 48//5 288//5 290//5
f 121//6 122//6 362//6 361//6
f 35//3 51//3 291//3 275//3
f 188//6 189//6 429//6 428//6
f 122//6 123//6 363//6 362//6
f 52//4 36//4 276//4 292//4
f 190//5 180//5 420//5 430//5
f 56//3 53//3 293//3 296//3
f 189//6 191//6 431//6 429//6
f 113//5 112//5 352//5 353//5
f 53//6 54//6 294//6 293//6
f 192//5 190//5 430//5 432//5
f 124//4 114//4 354//4 364//4
f 55//5 56//5 296//5 295//5
f 191//6 193//6 433//6 431//6
f 115//3 125//3 365//3 355//3
f 54//6 57//6 297//6 294//6
f 193//4 194//4 434//4 433//4
f 194//5 192//5 432//5 434//5
f 126//4 116//4 356//4 366//4
f 58//5 55//5 295//5 298//5
f 198//3 195//3 435//3 438//3
f 130//3 127//3 367//3 370//3
f 57//6 59//6 299//6 297//6
f 196//4 197//4 437//4 436//4
f 60//5 58//5 298//5 300//5
f 197//5 198//5 438//5 437//5
f 129//5 130//5 370//5 369//5
f 202//3 199//3 439//3 442//3
f 128//6 131//6 371//6 368//6
f 61//4 62//4 302//4 301//4
f 199//6 200//6 440//6 439//6
f 62//5 60//5 300//5 302//5
f 117//5 129//5 369//5 357//5
f 37//3 63//3 303//3 277//3
f 201//5 202//5 442//5 441//5
f 200//6 203//6 443//6 440//6
f 132//4 118//4 358//4 372//4
f 64//4 38//4 278//4 304//4
f 119//3 133//3 373//3 359//3
f 39//3 65//3 305//3 279//3
f 204//5 201//5 441//5 444//5
f 203//6 205//6 445//6 443//6
f 134//4 120//4 360//4 374//4
f 66//4 40//4 280//4 306//4
f 123//3 135//3 375//3 363//3
f 41//3 67//3 307//3 281//3
f 181//5 204//5 444//5 421//5
f 205//6 206//6 446//6 445//6
f 136//4 124//4 364//4 376//4
f 68//4 42//4 282//4 308//4
f 206//4 182//4 422//4 446//4
f 125//3 137//3 377//3 365//3
f 51//3 69//3 309//3 291//3
f 183//3 207//3 447//3 423//3
f 138//4 126//4 366//4 378//4
f 70//4 52//4 292//4 310//4
f 208//4 184//4 424//4 448//4
f 127//3 139//3 379//3 367//3
f 59//3 71//3 311//3 299//3
f 185//3 209//3 449//3 425//3
f 140//4 128//4 368//4 380//4
f 72//4 61//4 301//4 312//4
f 210//4 186//4 426//4 450//4
f 131//3 141//3 381//3 371//3
f 63//3 73//3 313//3 303//3
f 195//3 211//3 451//3 435//3
f 142//4 132//4 372//4 382//4
f 74//4 64//4 304//4 314//4
f 4//3 1//3 241//3 244//3
f 212//4 196//4 436//4 452//4
f 133//3 143//3 383//3 373//3
f 65//3 75//3 315//3 305//3
f 207//3 213//3 453//3 447//3
f 76//4 66//4 306//4 316//4
f 3//5 4//5 244//5 243//5
f 214//4 208//4 448//4 454//4
f 144//6 145//6 385//6 384//6
f 67//3 77//3 317//3 307//3
f 2//6 5//6 245//6 242//6
f 209//3 215//3 455//3 449//3
f 215//6 216//6 456//6 455//6
f 146//5 134//5 374//5 386//5
f 78//4 68//4 308//4 318//4
f 6//5 3//5 243//5 246//5
f 82//3 79//3 319//3 322//3
f 5//6 7//6 247//6 245//6
f 216//6 217//6 457//6 456//6
f 147//4 148//4 388//4 387//4
f 148//5 146//5 386//5 388//5
f 8//5 6//5 246//5 248//5
f 218//5 210//5 450//5 458//5
f 135//3 149//3 389//3 375//3
f 81//5 82//5 322//5 321//5
f 7//6 9//6 249//6 247//6
f 217//6 219//6 459//6 457//6
f 80//6 83//6 323//6 320//6
f 150//4 136//4 376//4 390//4
f 10//5 8//5 248//5 250//5
f 220//5 218//5 458//5 460//5
f 137//3 151//3 391//3 377//3
f 84//5 81//5 321//5 324//5
f 9//6 11//6 251//6 249//6
f 219//6 221//6 461//6 459//6
f 83//6 85//6 325//6 323//6
f 152//4 138//4 378//4 392//4
f 12//5 10//5 250//5 252//5
f 222//5 220//5 460//5 462//5
f 139//3 153//3 393//3 379//3
f 69//5 84//5 324//5 309//5
f 11//6 13//6 253//6 251//6
f 221//6 223//6 463//6 461//6
f 85//6 86//6 326//6 325//6
f 154//4 140//4 380//4 394//4
f 14//5 12//5 252//5 254//5
f 224//5 222//5 462//5 464//5
f 141//3 155//3 395//3 381//3
f 86//6 87//6 327//6 326//6
f 13//6 15//6 255//6 253//6
f 223//6 225//6 465//6 463//6
f 156//4 142//4 382//4 396//4
f 88//5 70//5 310//5 328//5
f 16//5 14//5 254//5 256//5
f 226//5 224//5 464//5 466//5
f 143//3 157//3 397//3 383//3
f 87//6 89//6 329//6 327//6
f 225//6 227//6 467//6 465//6
f 158//4 144//4 384//4 398//4
f 90//5 88//5 328//5 330//5
f 18//5 16//5 256//5 258//5
f 211//5 226//5 466//5 451//5
f 145//3 159//3 399//3 385//3
f 17//6 19//6 259//6 257//6
f 227//6 228//6 468//6 467//6
f 91//4 92//4 332//4 331//4
f 160//4 147//4 387//4 400//4
f 92//5 90//5 330//5 332//5
f 20//5 18//5 258//5 260//5
f 228//6 229//6 469//6 468//6
f 149//3 161//3 401//3 389//3
f 71//3 93//3 333//3 311//3
f 19//6 21//6 261//6 259//6
f 161//6 162//6 402//6 401//6
f 230//5 212//5 452//5 470//5
f 94//4 72//4 312//4 334//4
f 22//5 20//5 260//5 262//5
f 229//6 231//6 471//6 469//6
f 162//6 163//6 403//6 402//6
f 73//3 95//3 335//3 313//3
f 21//6 23//6 263//6 261//6
f 232//5 230//5 470//5 472//5
f 164//5 150//5 390//5 404//5
f 96//4 74//4 314//4 336//4
f 24//5 22//5 262//5 264//5
f 231//6 233//6 473//6 471//6
f 163//6 165//6 405//6 403//6
f 75//3 97//3 337//3 315//3
f 23//6 25//6 265//6 263//6
f 234//5 232//5 472//5 474//5
f 166//5 164//5 404//5 406//5
f 98//4 76//4 316//4 338//4
f 26//5 24//5 264//5 266//5
f 233//6 235//6 475//6 473//6
f 165//6 167//6 407//6 405//6
f 77//3 99//3 339//3 317//3
f 25//6 27//6 267//6 265//6
f 236//5 234//5 474//5 476//5
f 168//5 166//5 406//5 408//5
f 100//4 78//4 318//4 340//4
f 28//5 26//5 266//5 268//5
f 235//6 237//6 477//6 475//6
f 167//6 169//6 409//6 407//6
f 79//3 101//3 341//3 319//3
f 27//6 29//6 269//6 267//6
f 238//5 236//5 476//5 478//5
f 170//5 168//5 408//5 410//5
f 102//4 80//4 320//4 342//4
f 30//5 28//5 268//5 270//5
f 237//6 239//6 479//6 477//6
f 169//6 171//6 411//6 409//6
f 89//3 103//3 343//3 329//3
f 31//4 32//4 272//4 271//4
f 213//5 238//5 478//5 453//5
f 151//5 170//5 410//5 391//5
f 104//4 91//4 331//4 344//4
f 32//5 30//5 270//5 272//5
f 239//6 240//6 480//6 479//6
f 171//6 172//6 412//6 411//6
f 93//3 105//3 345//3 333//3
f 1//3 33//3 273//3 241//3
f 240//4 214//4 454//4 480//4
f 172//4 152//4 392//4 412//4
f 105//6 106//6 346//6 345//6
f 153//3 173//3 413//3 393//3
f 106//4 94//4 334//4 346//4
f 34//4 2//4 242//4 274//4
f 95//3 107//3 347//3 335//3
f 15//3 35//3 275//3 255//3
f 174//4 154//4 394//4 414//4
f 155//3 175//3 415//3 395//3
f 108//4 96//4 336//4 348//4
f 36//4 17//4 257//4 276//4
f 97//3 109//3 349//3 337//3
f 29//3 37//3 277//3 269//3
f 176//4 156//4 396//4 416//4
f 157//3 177//3 417//3 397//3
f 110//4 98//4 338//4 350//4
f 38//4 31//4 271//4 278//4
f 99//3 111//3 351//3 339//3
f 33//3 39//3 279//3 273//3
f 178//4 158//4 398//4 418//4
